<?xml version="1.0" encoding="UTF-8" standalone="no"?>
<!-- Created with Inkscape (http://www.inkscape.org/) -->

<svg
   xmlns:dc="http://purl.org/dc/elements/1.1/"
   xmlns:cc="http://creativecommons.org/ns#"
   xmlns:rdf="http://www.w3.org/1999/02/22-rdf-syntax-ns#"
   xmlns:svg="http://www.w3.org/2000/svg"
   xmlns="http://www.w3.org/2000/svg"
   xmlns:sodipodi="http://sodipodi.sourceforge.net/DTD/sodipodi-0.dtd"
   xmlns:inkscape="http://www.inkscape.org/namespaces/inkscape"
   width="21"
   height="21"
   viewBox="0 0 21 21"
   id="svg3470"
   version="1.1"
   inkscape:version="0.91 r13725"
   sodipodi:docname="bikemoves-destination-15.svg">
  <defs
     id="defs3472" />
  <sodipodi:namedview
     id="base"
     pagecolor="#ffffff"
     bordercolor="#666666"
     borderopacity="1.0"
     inkscape:pageopacity="0.0"
     inkscape:pageshadow="2"
     inkscape:zoom="32"
     inkscape:cx="15.531249"
     inkscape:cy="14.751953"
     inkscape:document-units="px"
     inkscape:current-layer="text3952"
     showgrid="false"
     units="px"
     inkscape:window-width="1920"
     inkscape:window-height="1178"
     inkscape:window-x="36"
     inkscape:window-y="0"
     inkscape:window-maximized="0" />
  <metadata
     id="metadata3475">
    <rdf:RDF>
      <cc:Work
         rdf:about="">
        <dc:format>image/svg+xml</dc:format>
        <dc:type
           rdf:resource="http://purl.org/dc/dcmitype/StillImage" />
        <dc:title></dc:title>
      </cc:Work>
    </rdf:RDF>
  </metadata>
  <g
     inkscape:label="Layer 1"
     inkscape:groupmode="layer"
     id="layer1"
     transform="translate(0,-1031.3622)">
    <g
       transform="matrix(0.08515001,0,0,0.08515001,-2.3603935,1028.9241)"
       id="g3742"
       style="fill:#000000">
      <g
         style="font-style:normal;font-weight:normal;font-size:469.75918579px;line-height:125%;font-family:sans-serif;letter-spacing:0px;word-spacing:0px;fill:#000000;fill-opacity:1;stroke:none;stroke-width:1px;stroke-linecap:butt;stroke-linejoin:miter;stroke-opacity:1"
         id="text3952">
        <g
           style="font-style:normal;font-weight:normal;font-size:469.75918579px;line-height:125%;font-family:sans-serif;letter-spacing:0px;word-spacing:0px;fill:#ffffff;fill-opacity:1;stroke:none;stroke-width:1px;stroke-linecap:butt;stroke-linejoin:miter;stroke-opacity:1"
           id="text3959"
           transform="matrix(1.3031481,0,0,1.3031481,-67.919347,-69.361743)">
          <path
             d="m 130.4573,173.66657 0,62.73395 37.15869,0 q 18.69403,0 27.63964,-7.68405 9.06029,-7.79873 9.06029,-23.74027 0,-16.05622 -9.06029,-23.62558 -8.94561,-7.68405 -27.63964,-7.68405 l -37.15869,0 z m 0,-70.418 0,51.60928 34.2915,0 q 16.97373,0 25.23121,-6.3078 8.37217,-6.42249 8.37217,-19.49684 0,-12.95967 -8.37217,-19.38216 -8.25748,-6.42248 -25.23121,-6.42248 l -34.2915,0 z m -23.16683,-19.038097 59.17864,0 q 26.49277,0 40.82868,11.009981 14.33592,11.009986 14.33592,31.309636 0,15.71216 -7.33999,25.00183 -7.33999,9.28967 -21.56121,11.58342 17.0884,3.66999 26.49276,15.36809 9.51905,11.58342 9.51905,29.01589 0,22.93746 -15.59747,35.43838 -15.59748,12.50091 -44.38399,12.50091 l -61.47239,0 0,-171.228137 z"
             style="font-size:234.8795929px;fill:#ffffff"
             id="path3964"
             inkscape:connector-curvature="0" />
        </g>
      </g>
    </g>
  </g>
</svg>
