<?xml version="1.0" encoding="UTF-8" standalone="no"?>
<!-- Created with Inkscape (http://www.inkscape.org/) -->

<svg
   xmlns:dc="http://purl.org/dc/elements/1.1/"
   xmlns:cc="http://creativecommons.org/ns#"
   xmlns:rdf="http://www.w3.org/1999/02/22-rdf-syntax-ns#"
   xmlns:svg="http://www.w3.org/2000/svg"
   xmlns="http://www.w3.org/2000/svg"
   xmlns:sodipodi="http://sodipodi.sourceforge.net/DTD/sodipodi-0.dtd"
   xmlns:inkscape="http://www.inkscape.org/namespaces/inkscape"
   width="21"
   height="21"
   viewBox="0 0 21 21"
   id="svg3470"
   version="1.1"
   inkscape:version="0.91 r13725"
   sodipodi:docname="bikemoves-current-15.svg">
  <defs
     id="defs3472" />
  <sodipodi:namedview
     id="base"
     pagecolor="#ffffff"
     bordercolor="#666666"
     borderopacity="1.0"
     inkscape:pageopacity="0.0"
     inkscape:pageshadow="2"
     inkscape:zoom="45.254834"
     inkscape:cx="12.125"
     inkscape:cy="9.9536887"
     inkscape:document-units="px"
     inkscape:current-layer="g3742"
     showgrid="false"
     units="px"
     inkscape:window-width="1920"
     inkscape:window-height="1178"
     inkscape:window-x="36"
     inkscape:window-y="0"
     inkscape:window-maximized="0" />
  <metadata
     id="metadata3475">
    <rdf:RDF>
      <cc:Work
         rdf:about="">
        <dc:format>image/svg+xml</dc:format>
        <dc:type
           rdf:resource="http://purl.org/dc/dcmitype/StillImage" />
        <dc:title></dc:title>
      </cc:Work>
    </rdf:RDF>
  </metadata>
  <g
     inkscape:label="Layer 1"
     inkscape:groupmode="layer"
     id="layer1"
     transform="translate(0,-1031.3622)">
    <g
       transform="matrix(0.08515001,0,0,0.08515001,-2.3603935,1028.9241)"
       id="g3742"
       style="fill:#000000">
      <g
         id="g3744"
         style="fill:#ffffff">
        <g
           id="g3746"
           style="fill:#ffffff">
          <g
             id="g3748"
             style="fill:#ffffff">
            <path
               style="fill:#ffffff"
               inkscape:connector-curvature="0"
               id="path3750"
               d="m 216.7,136 -27.4,0 c 0,-10 -1.4,-29.2 -12.4,-36.1 -5.8,-3.6 -13,-3.1 -21.2,1.5 -31,17.3 -41.7,46.3 -42.1,47.6 l -1.3,3.7 42.8,23.8 -12.9,44 c -1,2.3 0.1,4.9 2.4,5.9 0.6,0.2 1.2,0.4 1.7,0.4 1.7,0 3.4,-1 4.1,-2.7 0,0 19.5,-45.6 19.7,-46 0.9,-1.8 0.5,-3.9 -0.9,-5.3 -0.4,-0.5 -31.6,-21.6 -31.6,-21.6 3.7,-7.9 9.7,-20.1 22.4,-36.6 3.6,-4.7 9.3,-6 12.1,-4.3 7,4.4 8.7,19.8 8.1,30.2 l -0.3,4.6 36.8,0 c 2.5,0 4.5,-2 4.5,-4.5 0,-2.5 -2.1,-4.6 -4.5,-4.6 z"
               class="st3" />
            <circle
               style="fill:#ffffff"
               id="circle3752"
               r="21"
               cy="76.800003"
               cx="189.5"
               class="st3" />
          </g>
          <g
             id="g3754"
             style="fill:#ffffff">
            <path
               style="fill:#ffffff"
               inkscape:connector-curvature="0"
               id="path3756"
               d="m 89.4,259.6 c -24.8,0 -45.1,-20.2 -45.1,-45.1 0,-24.9 20.2,-45.1 45.1,-45.1 24.9,0 45.1,20.2 45.1,45.1 0,24.9 -20.3,45.1 -45.1,45.1 z m 0,-81.2 c -19.9,0 -36.1,16.2 -36.1,36.1 0,19.9 16.2,36.1 36.1,36.1 19.9,0 36.1,-16.2 36.1,-36.1 0,-19.9 -16.2,-36.1 -36.1,-36.1 z"
               class="st3" />
            <path
               style="fill:#ffffff"
               inkscape:connector-curvature="0"
               id="path3758"
               d="m 217.5,259.6 c -24.8,0 -45.1,-20.2 -45.1,-45.1 0,-24.9 20.2,-45.1 45.1,-45.1 24.8,0 45.1,20.2 45.1,45.1 0,24.9 -20.2,45.1 -45.1,45.1 z m 0,-81.2 c -19.9,0 -36.1,16.2 -36.1,36.1 0,19.9 16.2,36.1 36.1,36.1 19.9,0 36.1,-16.2 36.1,-36.1 0,-19.9 -16.2,-36.1 -36.1,-36.1 z"
               class="st3" />
            <path
               style="fill:#ffffff"
               inkscape:connector-curvature="0"
               id="path3760"
               d="m 89.4,219 c -0.7,0 -1.5,-0.2 -2.1,-0.5 -2.2,-1.2 -3,-3.9 -1.8,-6.1 L 111.1,165 c 1.2,-2.2 3.9,-3 6.1,-1.8 2.2,1.2 3,3.9 1.8,6.1 l -25.6,47.4 c -0.9,1.4 -2.4,2.3 -4,2.3 z"
               class="st3" />
            <path
               style="fill:#ffffff"
               inkscape:connector-curvature="0"
               id="path3762"
               d="m 217.5,219 c -2.1,0 -4,-1.5 -4.4,-3.6 l -12.4,-61.9 c -0.5,-2.4 1.1,-4.8 3.5,-5.3 2.4,-0.5 4.8,1.1 5.3,3.5 l 12.4,61.9 c 0.5,2.4 -1.1,4.8 -3.5,5.3 -0.3,0.1 -0.6,0.1 -0.9,0.1 z"
               class="st3" />
          </g>
        </g>
      </g>
      <path
         style="fill:#ffffff"
         inkscape:connector-curvature="0"
         id="path3772"
         d="m 220.9,81.4 c -11.6,-2.7 -41.8,-9.8 -59.2,-13.9 3.8,-16.2 20.2,-26.5 36.5,-22.6 16.3,3.9 26.5,20.4 22.7,36.5 z"
         class="st3" />
    </g>
  </g>
</svg>
